<?xml version="1.0" encoding="UTF-8"?>
<!DOCTYPE svg PUBLIC "-//W3C//DTD SVG 1.1//EN" "http://www.w3.org/Graphics/SVG/1.1/DTD/svg11.dtd">
<svg xmlns="http://www.w3.org/2000/svg" version="1.1" width="287px" height="240px" style="shape-rendering:geometricPrecision; text-rendering:geometricPrecision; image-rendering:optimizeQuality; fill-rule:evenodd; clip-rule:evenodd" xmlns:xlink="http://www.w3.org/1999/xlink">
<g><path style="opacity:0.968" fill="#fefffe" d="M 147.5,-0.5 C 159.167,-0.5 170.833,-0.5 182.5,-0.5C 242.811,12.4442 277.477,49.4442 286.5,110.5C 286.5,116.167 286.5,121.833 286.5,127.5C 277.625,189.374 242.625,226.707 181.5,239.5C 170.833,239.5 160.167,239.5 149.5,239.5C 123.815,235.1 101.315,224.1 82,206.5C 81.3333,204.833 81.3333,203.167 82,201.5C 88.7414,194.254 95.908,187.588 103.5,181.5C 134.903,209.21 169.569,214.044 207.5,196C 240.788,175.589 255.622,145.756 252,106.5C 243.506,66.0059 219.006,41.5059 178.5,33C 139.274,29.3634 109.44,44.1967 89,77.5C 82.2105,90.3246 78.7105,103.991 78.5,118.5C 93.837,118.333 109.17,118.5 124.5,119C 104.042,140.625 83.0417,161.792 61.5,182.5C 40.452,162.119 19.7853,141.452 -0.5,120.5C -0.5,119.833 -0.5,119.167 -0.5,118.5C 14.5,118.5 29.5,118.5 44.5,118.5C 49.9655,53.7095 84.2989,14.0428 147.5,-0.5 Z"/></g>
<g><path style="opacity:0.954" fill="#fefffe" d="M 142.5,66.5 C 164.069,83.0619 185.069,100.395 205.5,118.5C 200.649,124.184 195.316,129.351 189.5,134C 174.312,146.689 158.978,159.189 143.5,171.5C 142.702,169.922 142.202,168.256 142,166.5C 141.174,133.095 141.341,99.7618 142.5,66.5 Z"/></g>
</svg>
